<svg width="1377" height="370" viewBox="0 0 1377 370" fill="none" xmlns="http://www.w3.org/2000/svg">
<path d="M173.976 186.047C169.488 195.023 167.244 204.203 167.244 213.587C167.244 222.563 168.876 231.131 172.14 239.291C175.404 247.451 180.096 254.999 186.216 261.935C192.744 268.463 200.496 273.563 209.472 277.235C227.832 284.579 245.376 284.987 262.104 278.459C279.24 271.931 292.296 259.691 301.272 241.739C304.944 232.763 306.576 223.787 306.168 214.811C305.76 205.427 303.924 196.655 300.66 188.495C297.396 180.335 292.704 172.991 286.584 166.463C280.464 159.527 273.324 154.223 265.164 150.551C256.596 146.879 247.62 145.043 238.236 145.043C228.852 144.635 220.08 146.063 211.92 149.327C203.76 152.591 196.212 157.283 189.276 163.403C182.748 169.523 177.648 177.071 173.976 186.047ZM377.16 273.563C368.592 293.963 356.76 311.303 341.664 325.583C326.976 339.455 310.452 350.063 292.092 357.407C274.14 364.751 254.964 368.423 234.564 368.423C214.164 368.015 193.968 363.323 173.976 354.347C154.8 346.187 138.48 334.763 125.016 320.075C111.552 305.387 101.148 288.863 93.8038 270.503C86.4598 252.143 82.5838 232.967 82.1758 212.975C82.1758 192.575 86.2558 172.787 94.4158 153.611C103.392 133.619 115.428 116.483 130.524 102.203C146.028 87.9231 162.96 77.3151 181.32 70.3791C199.68 63.0351 218.856 59.5671 238.848 59.9752C258.84 59.9752 278.424 64.4632 297.6 73.4391C316.776 81.5991 333.3 93.2271 347.172 108.323C361.044 123.011 371.448 139.535 378.384 157.895C385.728 175.847 389.4 195.023 389.4 215.423C389.4 235.415 385.32 254.795 377.16 273.563ZM458.212 165.851C446.38 165.851 435.976 161.363 427 152.387C418.024 143.411 413.536 133.007 413.536 121.175C413.536 109.343 418.024 99.5511 427 91.7992C435.976 83.6391 446.38 79.5591 458.212 79.5591V44.6751C458.212 32.8431 462.7 23.0511 471.676 15.2992C480.652 7.13913 491.056 3.05913 502.888 3.05913C514.312 3.05913 523.9 7.13913 531.652 15.2992C539.404 23.0511 543.28 32.8431 543.28 44.6751V59.3631H564.088C575.92 59.3631 586.324 63.2391 595.3 70.9911C604.276 78.7431 608.764 88.5351 608.764 100.367C608.764 112.199 604.276 122.603 595.3 131.579C586.324 140.555 575.92 145.043 564.088 145.043H543.28V251.531C544.912 260.507 547.768 268.259 551.848 274.787C556.336 280.907 561.436 286.823 567.148 292.535C576.124 299.879 581.836 309.467 584.284 321.299C586.732 332.723 584.08 342.923 576.328 351.899C568.576 360.875 559.396 366.179 548.788 367.811C538.18 369.035 527.572 366.791 516.964 361.079C500.644 347.615 487.588 331.499 477.796 312.731C468.004 293.963 461.476 273.563 458.212 251.531V165.851ZM716.337 322.523C716.337 334.355 712.461 344.759 704.709 353.735C696.957 362.711 687.165 367.199 675.333 367.199C663.501 367.199 653.097 362.711 644.121 353.735C635.145 344.759 630.657 334.355 630.657 322.523V41.6151C630.657 29.7831 635.145 19.9912 644.121 12.2392C653.097 4.07914 663.501 -0.000871181 675.333 -0.000871181C687.165 -0.000871181 696.957 4.07914 704.709 12.2392C712.461 19.9912 716.337 29.7831 716.337 41.6151V322.523ZM829.007 186.047C824.519 195.023 822.275 204.203 822.275 213.587C822.275 222.563 823.907 231.131 827.171 239.291C830.435 247.451 835.127 254.999 841.247 261.935C847.775 268.463 855.527 273.563 864.503 277.235C882.863 284.579 900.407 284.987 917.135 278.459C934.271 271.931 947.327 259.691 956.303 241.739C959.975 232.763 961.607 223.787 961.199 214.811C960.791 205.427 958.955 196.655 955.691 188.495C952.427 180.335 947.735 172.991 941.615 166.463C935.495 159.527 928.355 154.223 920.195 150.551C911.627 146.879 902.651 145.043 893.267 145.043C883.883 144.635 875.111 146.063 866.951 149.327C858.791 152.591 851.243 157.283 844.307 163.403C837.779 169.523 832.679 177.071 829.007 186.047ZM1032.19 273.563C1023.62 293.963 1011.79 311.303 996.695 325.583C982.007 339.455 965.483 350.063 947.123 357.407C929.171 364.751 909.995 368.423 889.595 368.423C869.195 368.015 848.999 363.323 829.007 354.347C809.831 346.187 793.511 334.763 780.047 320.075C766.583 305.387 756.179 288.863 748.835 270.503C741.491 252.143 737.615 232.967 737.207 212.975C737.207 192.575 741.287 172.787 749.447 153.611C758.423 133.619 770.459 116.483 785.555 102.203C801.059 87.9231 817.991 77.3151 836.351 70.3791C854.711 63.0351 873.887 59.5671 893.879 59.9752C913.871 59.9752 933.455 64.4632 952.631 73.4391C971.807 81.5991 988.331 93.2271 1002.2 108.323C1016.08 123.011 1026.48 139.535 1033.42 157.895C1040.76 175.847 1044.43 195.023 1044.43 215.423C1044.43 235.415 1040.35 254.795 1032.19 273.563ZM1069.79 44.0631C1069.79 32.2312 1073.67 22.4391 1081.42 14.6871C1089.17 6.93512 1098.96 3.05913 1110.79 3.05913C1122.63 3.05913 1133.03 6.93512 1142.01 14.6871C1150.98 22.4391 1155.47 32.2312 1155.47 44.0631V77.1111C1166.08 72.6231 1176.69 68.9511 1187.29 66.0951C1197.9 63.2391 1209.73 61.8111 1222.79 61.8111C1243.6 61.8111 1263.18 65.8911 1281.54 74.0511C1300.31 81.8031 1316.63 92.6151 1330.5 106.487C1344.78 120.359 1356 136.679 1364.16 155.447C1372.32 174.215 1376.4 194.207 1376.4 215.423C1376.4 235.823 1372.32 255.407 1364.16 274.175C1356 292.535 1344.78 308.855 1330.5 323.135C1316.63 337.007 1300.31 348.227 1281.54 356.795C1263.18 364.955 1243.6 369.035 1222.79 369.035C1214.22 369.035 1206.06 368.219 1198.31 366.587C1190.56 364.955 1183.21 362.711 1176.28 359.855C1168.12 364.343 1159.96 366.995 1151.8 367.811C1144.05 368.219 1136.29 365.567 1128.54 359.855C1112.22 348.023 1098.55 332.927 1087.54 314.567C1076.93 296.207 1071.01 276.011 1069.79 253.979V44.0631ZM1290.72 215.423C1290.72 205.631 1288.89 196.655 1285.21 188.495C1281.95 179.927 1277.26 172.379 1271.14 165.851C1265.43 159.323 1258.29 154.223 1249.72 150.551C1241.56 146.879 1232.58 145.043 1222.79 145.043C1205.25 145.043 1190.15 150.755 1177.5 162.179C1165.26 173.603 1157.92 187.271 1155.47 203.183V227.051C1157.92 243.371 1165.26 256.835 1177.5 267.443C1190.15 278.051 1205.25 283.355 1222.79 283.355C1232.58 283.355 1241.56 281.723 1249.72 278.459C1258.29 274.787 1265.43 269.891 1271.14 263.771C1277.26 257.651 1281.95 250.511 1285.21 242.351C1288.89 234.191 1290.72 225.215 1290.72 215.423Z" fill="#FF385D"/>
<ellipse cx="891" cy="214.035" rx="154" ry="155" fill="#FF385D"/>
<path fill-rule="evenodd" clip-rule="evenodd" d="M824.288 293.049C823.413 291.631 816.463 280.376 822.334 272.314C836.577 252.756 848.302 283.672 889.376 283.085C952.741 282.18 957.436 219.908 959.263 215.53C968.226 194.052 1003.42 198.106 988.251 244.697C964.096 318.865 871.661 340.109 824.288 293.049Z" fill="white"/>
</svg>
